<svg width="140" height="32" viewBox="0 0 140 32" fill="none" xmlns="http://www.w3.org/2000/svg">
<path fill-rule="evenodd" clip-rule="evenodd" d="M15.9906 32C24.5539 32 31.5451 25.2649 31.9617 16.8H17.8232C17.5147 17.5064 16.8103 18 15.9906 18C14.8867 18 13.9918 17.1046 13.9918 16C13.9918 14.8954 14.8867 14 15.9906 14C16.7305 14 17.3765 14.4022 17.7221 15H19.8624C19.4186 13.2748 17.8534 12 15.9906 12C13.7828 12 11.993 13.7908 11.993 16C11.993 18.2092 13.7828 20 15.9906 20C17.2065 20 18.2955 19.4569 19.0287 18.6H29.7416C28.5236 25.0896 22.8302 30 15.9906 30C8.26317 30 1.99883 23.732 1.99883 16C1.99883 8.268 8.26317 2 15.9906 2C23.3821 2 29.4349 7.73472 29.9473 15H31.9506C31.4347 6.62928 24.4864 0 15.9906 0C7.15925 0 0 7.16344 0 16C0 24.8366 7.15925 32 15.9906 32ZM27.1518 20.4C25.3979 24.8506 21.0618 28 15.9906 28C9.36712 28 3.99766 22.6274 3.99766 16C3.99766 9.3726 9.36712 4 15.9906 4C22.2777 4 27.4347 8.84048 27.9426 15H25.9355C25.434 9.94668 21.173 6 15.9906 6C10.471 6 5.99649 10.4772 5.99649 16C5.99649 21.5228 10.471 26 15.9906 26C19.9323 26 23.3411 23.7168 24.9679 20.4H27.1518ZM22.6691 20.4H20.0675C18.9977 21.3929 17.565 22 15.9906 22C12.6789 22 9.99415 19.3137 9.99415 16C9.99415 12.6863 12.6789 10 15.9906 10C18.9619 10 21.4284 12.1623 21.9042 15H23.9241C23.4323 11.0537 20.0679 8 15.9906 8C11.575 8 7.99532 11.5817 7.99532 16C7.99532 20.4183 11.575 24 15.9906 24C18.7819 24 21.239 22.5689 22.6691 20.4Z" fill="#473460"/>
<path fill-rule="evenodd" clip-rule="evenodd" d="M104.417 8.31559C104.417 9.58959 103.352 10.6556 102.078 10.6556C100.805 10.6556 99.7399 9.58959 99.7399 8.31559C99.7399 7.04159 100.805 5.97559 102.078 5.97559C103.352 5.97559 104.417 7.04159 104.417 8.31559ZM45.2249 14.6596H54.3456V16.2196C54.3456 21.7836 50.4739 25.1636 45.3808 25.1636C39.6642 25.1636 35.5586 20.9516 35.5586 15.7256C35.5586 10.4476 39.7421 6.23559 45.095 6.23559C48.577 6.23559 51.5133 7.95159 53.0464 10.3956L49.5124 12.4236C48.7589 11.2276 47.1218 10.2916 45.069 10.2916C42.0028 10.2916 39.7162 12.5536 39.7162 15.7516C39.7162 18.8456 41.8989 21.1076 45.4328 21.1076C47.8494 21.1076 49.4345 20.0416 50.0841 18.2996H45.2249V14.6596ZM58.8971 11.8V14.114C59.4168 12.372 61.1578 11.54 62.7948 11.54V15.96C61.1838 15.7 58.8971 16.35 58.8971 18.924V24.8H54.9994V11.8H58.8971ZM66.68 19.8596H75.9046C76.0085 19.3656 76.0605 18.8456 76.0605 18.2996C76.0605 14.3736 73.2542 11.4356 69.4604 11.4356C65.3548 11.4356 62.5484 14.4256 62.5484 18.2996C62.5484 22.1736 65.3028 25.1636 69.7462 25.1636C72.2148 25.1636 74.1376 24.2536 75.4109 22.4856L72.2927 20.6916C71.773 21.2636 70.8635 21.6796 69.7982 21.6796C68.369 21.6796 67.1737 21.2116 66.68 19.8596ZM69.4344 14.8936C67.9533 14.8936 66.9658 15.6216 66.602 16.9476H72.1888C71.773 15.4396 70.6037 14.8936 69.4344 14.8936ZM84.7414 11.4356C83.0005 11.4356 81.7272 12.0336 80.8697 13.0216V11.7996H76.972V29.9996H80.8697V23.5776C81.7272 24.5656 83.0005 25.1636 84.7414 25.1636C88.1454 25.1636 90.9518 22.1736 90.9518 18.2996C90.9518 14.4256 88.1454 11.4356 84.7414 11.4356ZM80.8697 18.2999C80.8697 20.2499 82.1689 21.4719 83.9619 21.4719C85.7548 21.4719 87.0541 20.2499 87.0541 18.2999C87.0541 16.3499 85.7548 15.1279 83.9619 15.1279C82.1689 15.1279 80.8697 16.3499 80.8697 18.2999ZM99.2222 15.5432V11.7992H96.5457V8.15918L92.648 9.32918V11.7992H90.5692V15.5432H92.648V20.1452C92.648 23.7852 94.1291 25.3192 99.2222 24.7992V21.2632C97.5072 21.3672 96.5457 21.2632 96.5457 20.1452V15.5432H99.2222ZM116.364 13.1516C117.092 12.1116 118.287 11.4356 120.132 11.4356C123.12 11.4356 125.069 13.5676 125.069 16.8176V24.7996H121.171V17.1556C121.171 15.8556 120.548 15.0236 119.3 15.0236C118.001 15.0236 117.274 15.9336 117.274 17.4676V24.7996H113.376V17.1556C113.376 15.8556 112.752 15.0236 111.505 15.0236C110.206 15.0236 109.478 15.9336 109.478 17.4676V24.7996H105.58V11.7996H109.478V12.9956C110.076 12.1116 111.219 11.4356 112.96 11.4356C114.493 11.4356 115.637 12.0596 116.364 13.1516ZM129.916 19.8596H139.141C139.245 19.3656 139.297 18.8456 139.297 18.2996C139.297 14.3736 136.49 11.4356 132.697 11.4356C128.591 11.4356 125.785 14.4256 125.785 18.2996C125.785 22.1736 128.539 25.1636 132.982 25.1636C135.451 25.1636 137.374 24.2536 138.647 22.4856L135.529 20.6916C135.009 21.2636 134.1 21.6796 133.034 21.6796C131.605 21.6796 130.41 21.2116 129.916 19.8596ZM132.671 14.8936C131.189 14.8936 130.202 15.6216 129.838 16.9476H135.425C135.009 15.4396 133.84 14.8936 132.671 14.8936ZM100.13 24.7996H104.027V11.7996H100.13V24.7996Z" fill="#473460"/>
</svg>
